<svg width="350" height="350" viewBox="0 0 350 350" fill="none" xmlns="http://www.w3.org/2000/svg">
<path d="M65.625 298.958H284.375C284.375 298.958 298.958 298.958 298.958 313.542V328.125C298.958 328.125 298.958 342.708 284.375 342.708H65.625C65.625 342.708 51.0416 342.708 51.0416 328.125V313.542C51.0416 313.542 51.0416 298.958 65.625 298.958Z" stroke="white" stroke-width="5" stroke-linecap="round" stroke-linejoin="round"/>
<path d="M284.375 298.958C284.375 291.223 281.302 283.804 275.832 278.334C270.362 272.865 262.944 269.792 255.208 269.792H94.7917C87.0562 269.792 79.6375 272.865 74.1677 278.334C68.6979 283.804 65.625 291.223 65.625 298.958H284.375Z" stroke="white" stroke-width="5" stroke-linecap="round" stroke-linejoin="round"/>
<path d="M145.352 9.97498C180.36 16.6513 211.943 35.3296 234.658 62.7913C257.373 90.2529 269.798 124.778 269.792 160.417V240.625" stroke="white" stroke-width="5" stroke-linecap="round" stroke-linejoin="round"/>
<path d="M94.7916 269.792H255.208C245.616 250.612 240.623 229.461 240.625 208.017V160.417C240.625 129.489 229.065 99.6793 208.213 76.8388C187.361 53.9983 158.724 39.7776 127.925 36.9687C124.34 28.9402 118.728 21.9825 111.641 16.7793C104.553 11.5761 96.2337 8.30641 87.5 7.29163C85.5661 7.29163 83.7114 8.05985 82.344 9.42731C80.9765 10.7948 80.2083 12.6494 80.2083 14.5833V47.5125C71.234 53.5086 63.8772 61.6257 58.7896 71.1446C53.7021 80.6634 51.0408 91.2902 51.0416 102.083V167.708C51.0416 171.576 52.5781 175.285 55.313 178.02C58.0479 180.755 61.7572 182.292 65.625 182.292H80.2083C84.4157 182.292 88.5098 180.928 91.8757 178.404C95.2416 175.879 97.6976 172.331 98.875 168.292L105 147.292C105.738 144.768 107.273 142.552 109.376 140.974C111.48 139.397 114.038 138.543 116.667 138.542C122.468 138.542 128.032 136.237 132.135 132.135C136.237 128.032 138.542 122.468 138.542 116.667C138.517 143.57 130.976 169.931 116.769 192.777C102.363 215.879 94.7474 242.567 94.7916 269.792Z" stroke="white" stroke-width="5" stroke-linecap="round" stroke-linejoin="round"/>
<path d="M98.3496 80.2C103.121 80.2 106.7 83.7798 106.7 87.8503C106.7 91.9207 103.121 95.4998 98.3496 95.4998C93.5787 95.4996 90.0002 91.9206 90 87.8503C90 83.7799 93.5786 80.2001 98.3496 80.2Z" stroke="white" stroke-width="5"/>
</svg>
