<svg width="500" height="500" viewBox="0 0 500 500" fill="none" xmlns="http://www.w3.org/2000/svg">
<path d="M93.75 427.083H406.25C406.25 427.083 427.083 427.083 427.083 447.917V468.75C427.083 468.75 427.083 489.583 406.25 489.583H93.75C93.75 489.583 72.9166 489.583 72.9166 468.75V447.917C72.9166 447.917 72.9166 427.083 93.75 427.083Z" stroke="white" stroke-width="5" stroke-linecap="round" stroke-linejoin="round"/>
<path d="M406.25 427.083C406.25 416.033 401.86 405.435 394.046 397.621C386.232 389.807 375.634 385.417 364.583 385.417H135.417C124.366 385.417 113.768 389.807 105.954 397.621C98.1399 405.435 93.75 416.033 93.75 427.083H406.25Z" stroke="white" stroke-width="5" stroke-linecap="round" stroke-linejoin="round"/>
<path d="M207.646 14.25C257.657 23.7876 302.775 50.4709 335.226 89.7019C367.676 128.933 385.426 178.254 385.417 229.167V343.75" stroke="white" stroke-width="5" stroke-linecap="round" stroke-linejoin="round"/>
<path d="M135.417 385.417H364.583C350.88 358.017 343.747 327.802 343.75 297.167V229.167C343.751 184.985 327.235 142.399 297.447 109.77C267.659 77.1405 226.749 56.8252 182.75 52.8125C177.629 41.3431 169.612 31.4035 159.487 23.9704C149.362 16.5372 137.477 11.8663 125 10.4166C122.237 10.4166 119.588 11.5141 117.634 13.4676C115.681 15.4211 114.583 18.0706 114.583 20.8333V67.875C101.763 76.4409 91.2532 88.0368 83.9852 101.635C76.7173 115.233 72.9155 130.415 72.9166 145.833V239.583C72.9166 245.109 75.1116 250.408 79.0186 254.315C82.9256 258.222 88.2246 260.417 93.75 260.417H114.583C120.594 260.418 126.443 258.469 131.251 254.862C136.059 251.256 139.568 246.187 141.25 240.417L150 210.417C151.054 206.812 153.247 203.645 156.252 201.392C159.257 199.138 162.911 197.919 166.667 197.917C174.955 197.917 182.903 194.624 188.764 188.764C194.624 182.903 197.917 174.955 197.917 166.667C197.882 205.1 187.108 242.759 166.812 275.396C146.233 308.398 135.353 346.524 135.417 385.417Z" stroke="white" stroke-width="5" stroke-linecap="round" stroke-linejoin="round"/>
<path d="M140.5 113.5C147.839 113.5 153.5 119.027 153.5 125.5C153.5 131.973 147.839 137.5 140.5 137.5C133.161 137.5 127.5 131.973 127.5 125.5C127.5 119.027 133.161 113.5 140.5 113.5Z" stroke="white" stroke-width="5"/>
</svg>
