<svg width="636" height="260" viewBox="0 0 636 260" fill="none" xmlns="http://www.w3.org/2000/svg">
<g opacity="0.4">
<rect width="100" height="20" rx="10" fill="#8D4BE5"/>
<rect x="40" y="84" width="100" height="20" rx="10" fill="#8D4BE5"/>
<rect y="44" width="100" height="20" rx="10" fill="#8D4BE5"/>
<rect x="115" width="153" height="20" rx="10" fill="#404040"/>
<rect x="155" y="84" width="153" height="20" rx="10" fill="#404040"/>
<rect x="100" y="156" width="153" height="20" rx="10" fill="#404040"/>
<rect x="100" y="216" width="153" height="20" rx="10" fill="#404040"/>
<rect x="329" y="44" width="58" height="20" rx="10" fill="#404040"/>
<rect x="100" y="120" width="58" height="20" rx="10" fill="#595959"/>
<rect x="141" y="188" width="58" height="20" rx="10" fill="#595959"/>
<rect x="454" y="44" width="29" height="20" rx="10" fill="#404040"/>
<rect x="177" y="120" width="29" height="20" rx="10" fill="#404040"/>
<rect x="214" y="188" width="29" height="20" rx="10" fill="#404040"/>
<rect x="52" y="240" width="29" height="20" rx="10" fill="#404040"/>
<rect x="51" y="188" width="29" height="20" rx="10" fill="#404040"/>
<rect x="326" width="153" height="20" rx="10" fill="#404040"/>
<rect x="366" y="84" width="153" height="20" rx="10" fill="#404040"/>
<rect x="311" y="156" width="153" height="20" rx="10" fill="#404040"/>
<rect x="483" width="153" height="20" rx="10" fill="#F9BF4D"/>
<rect x="115" y="44" width="153" height="20" rx="10" fill="#F9BF4D"/>
<rect x="269" y="216" width="153" height="20" rx="10" fill="#F9BF4D"/>
<rect x="399" y="44" width="35" height="20" rx="10" fill="#F9BF4D"/>
<rect x="283" width="31" height="20" rx="10" fill="#707070"/>
<rect x="323" y="84" width="31" height="20" rx="10" fill="#707070"/>
<rect x="268" y="156" width="31" height="20" rx="10" fill="#707070"/>
<rect x="50" y="120" width="31" height="20" rx="10" fill="#112FEF"/>
<rect x="95" y="188" width="31" height="20" rx="10" fill="#112FEF"/>
<rect x="283" y="44" width="31" height="20" rx="10" fill="#707070"/>
</g>
</svg>
