<svg width="26" height="26" viewBox="0 0 26 26" fill="none" xmlns="http://www.w3.org/2000/svg">
<path d="M12.9983 0.500009C10.0311 0.496989 7.15989 1.57854 4.89914 3.55082C2.63839 5.52311 1.13592 8.2572 0.661002 11.2631C0.186079 14.269 0.769746 17.3503 2.3074 19.9547C3.84506 22.5591 6.23619 24.5163 9.05227 25.4757C9.67501 25.5881 9.87386 25.2118 9.87386 24.8733C9.87386 24.5677 9.87982 23.7184 9.87386 22.6443C6.39815 23.4178 5.68014 20.9567 5.68014 20.9567C5.45127 20.1822 4.9601 19.5174 4.29533 19.0821C3.16176 18.2878 4.37987 18.3024 4.37987 18.3024C4.77575 18.3582 5.15397 18.506 5.48562 18.7348C5.81727 18.9635 6.09355 19.2671 6.29336 19.6222C6.46246 19.9381 6.69088 20.2165 6.96544 20.4413C7.23999 20.666 7.55523 20.8327 7.89293 20.9317C8.23063 21.0307 8.5841 21.06 8.9329 21.0179C9.2817 20.9758 9.61892 20.8632 9.92506 20.6866C9.9846 20.0389 10.2644 19.434 10.7181 18.9794C7.94608 18.6544 5.0312 17.5558 5.0312 12.6445C5.01311 11.3708 5.47363 10.1389 6.31718 9.20448C5.9355 8.09978 5.97937 6.88719 6.43982 5.81459C6.43982 5.81459 7.49004 5.46998 9.87267 7.12948C11.9194 6.55311 14.0796 6.55311 16.1263 7.12948C18.5161 5.4712 19.5568 5.81459 19.5568 5.81459C20.0176 6.88752 20.0617 8.09977 19.6806 9.20448C20.5246 10.139 20.9848 11.3717 20.9654 12.6457C20.9654 17.5704 18.0458 18.6532 15.2631 18.9684C15.5619 19.2765 15.7928 19.6468 15.9403 20.0543C16.0878 20.4618 16.1484 20.897 16.118 21.3306V24.8794C16.118 25.2215 16.3204 25.6004 16.9539 25.4757C19.7693 24.5147 22.1592 22.5562 23.6956 19.9512C25.2319 17.3462 25.8142 14.2649 25.3382 11.2593C24.8622 8.25375 23.359 5.52034 21.0978 3.5488C18.8366 1.57727 15.9653 0.49646 12.9983 0.500009Z" stroke="url(#paint0_linear_115_136)" stroke-linecap="round" stroke-linejoin="round"/>
<defs>
<linearGradient id="paint0_linear_115_136" x1="12.7072" y1="-3.64932" x2="12.7072" y2="16.2375" gradientUnits="userSpaceOnUse">
<stop stop-color="#EEE4FF"/>
<stop offset="1" stop-color="#AF98D5"/>
</linearGradient>
</defs>
</svg>
