<svg width="44" height="44" viewBox="0 0 44 44" fill="none" xmlns="http://www.w3.org/2000/svg">
<path d="M21.9972 1.00001C17.0123 0.994942 12.1886 2.81194 8.39055 6.12538C4.5925 9.43882 2.06835 14.0321 1.27048 19.082C0.472613 24.132 1.45317 29.3085 4.03643 33.6839C6.61969 38.0592 10.6368 41.3474 15.3678 42.9592C16.414 43.1481 16.7481 42.5158 16.7481 41.9471C16.7481 41.4338 16.7581 40.007 16.7481 38.2024C10.9089 39.502 9.70264 35.3672 9.70264 35.3672C9.31814 34.0662 8.49296 32.9492 7.37616 32.2179C5.47176 30.8835 7.51819 30.9081 7.51819 30.9081C8.18326 31.0017 8.81867 31.2502 9.37584 31.6345C9.93301 32.0187 10.3972 32.5287 10.7328 33.1253C11.0169 33.6561 11.4007 34.1237 11.8619 34.5013C12.3232 34.8789 12.8528 35.159 13.4201 35.3252C13.9875 35.4915 14.5813 35.5407 15.1673 35.4701C15.7533 35.3994 16.3198 35.2102 16.8341 34.9135C16.9341 33.8254 17.4042 32.8092 18.1664 32.0455C13.5094 31.4994 8.61241 29.6537 8.61241 21.4027C8.58202 19.2629 9.3557 17.1933 10.7729 15.6235C10.1316 13.7676 10.2053 11.7305 10.9789 9.9285C10.9789 9.9285 12.7433 9.34956 16.7461 12.1375C20.1846 11.1692 23.8138 11.1692 27.2523 12.1375C31.2671 9.35161 33.0154 9.9285 33.0154 9.9285C33.7896 11.731 33.8636 13.7676 33.2235 15.6235C34.6413 17.1936 35.4144 19.2644 35.3819 21.4048C35.3819 29.6784 30.4769 31.4973 25.802 32.027C26.304 32.5446 26.692 33.1666 26.9397 33.8512C27.1875 34.5358 27.2893 35.267 27.2383 35.9954V41.9573C27.2383 42.5322 27.5783 43.1686 28.6425 42.9592C33.3724 41.3447 37.3875 38.0545 39.9685 33.678C42.5496 29.3016 43.5279 24.125 42.7282 19.0757C41.9285 14.0263 39.403 9.43417 35.6043 6.12199C31.8056 2.80982 26.9818 0.994052 21.9972 1.00001Z" stroke="url(#paint0_linear_115_70)" stroke-width="2" stroke-linecap="round" stroke-linejoin="round"/>
<defs>
<linearGradient id="paint0_linear_115_70" x1="41.5328" y1="43.0275" x2="28.7377" y2="-2.90531" gradientUnits="userSpaceOnUse">
<stop stop-color="#440099"/>
<stop offset="1" stop-color="#6600EE"/>
</linearGradient>
</defs>
</svg>
