<svg width="26" height="19" viewBox="0 0 26 19" fill="none" xmlns="http://www.w3.org/2000/svg">
<path d="M0.5 4.988L6.45238 9.422M0.5 4.988V18.5H6.45238V9.422M0.5 4.988V2.9C0.5 2.26348 0.75085 1.65303 1.19736 1.20294C1.64388 0.752856 2.24948 0.5 2.88095 0.5H3.8119C4.30345 0.500068 4.78293 0.653488 5.18452 0.9392L6.45238 1.8416M6.45238 9.422L13 14.3L19.5476 9.422M6.45238 9.422V1.8416M6.45238 1.8416L13 6.5L19.5476 1.8416M19.5476 9.422L25.5 4.9868M19.5476 9.422V18.5H25.5V4.9868M19.5476 9.422V1.8416M25.5 4.9868V2.9C25.5 2.26348 25.2491 1.65303 24.8026 1.20294C24.3561 0.752856 23.7505 0.5 23.119 0.5H22.1881C21.6965 0.500068 21.2171 0.653488 20.8155 0.9392L19.5476 1.8416" stroke="url(#paint0_linear_115_153)" stroke-linejoin="round"/>
<defs>
<linearGradient id="paint0_linear_115_153" x1="12.7072" y1="-2.48751" x2="12.7072" y2="11.831" gradientUnits="userSpaceOnUse">
<stop stop-color="#EEE4FF"/>
<stop offset="1" stop-color="#AF98D5"/>
</linearGradient>
</defs>
</svg>
