<svg width="26" height="26" viewBox="0 0 26 26" fill="none" xmlns="http://www.w3.org/2000/svg">
<path d="M18.9524 18.3575C16.881 20.4289 12.1084 18.6634 9.72265 16.2777C7.33693 13.892 5.57146 9.11938 7.64288 7.04796C8.24288 6.44796 9.06907 6.37653 9.57384 6.40034C9.8655 6.41343 10.1179 6.58486 10.2881 6.82296L11.4215 8.41105C11.5851 8.64038 11.6621 8.92031 11.6388 9.20106C11.6154 9.48181 11.4933 9.7452 11.2941 9.94438L10.2215 11.017C10.4191 11.6122 11.0548 13.0408 12.0072 13.9932C12.9596 14.9456 14.3881 15.5813 14.9834 15.7789L16.056 14.7075C16.255 14.5081 16.5183 14.3857 16.7991 14.3622C17.0798 14.3386 17.3598 14.4154 17.5893 14.5789L19.1774 15.7122C19.4155 15.8825 19.5869 16.1349 19.6 16.4265C19.6238 16.9313 19.5524 17.7575 18.9524 18.3575Z" stroke="url(#paint0_linear_115_118)" stroke-linejoin="round"/>
<path d="M13 25.5C19.9036 25.5 25.5 19.9036 25.5 13C25.5 6.09643 19.9036 0.5 13 0.5C6.09643 0.5 0.5 6.09643 0.5 13C0.5 15.2762 1.10833 17.4119 2.17262 19.25L1.125 24.875L6.75 23.8274C8.6494 24.9263 10.8056 25.5033 13 25.5Z" stroke="url(#paint1_linear_115_118)" stroke-linejoin="round"/>
<defs>
<linearGradient id="paint0_linear_115_118" x1="13.0146" y1="4.25924" x2="13.0146" y2="14.5026" gradientUnits="userSpaceOnUse">
<stop stop-color="#EEE4FF"/>
<stop offset="1" stop-color="#AF98D5"/>
</linearGradient>
<linearGradient id="paint1_linear_115_118" x1="12.7072" y1="-3.64932" x2="12.7072" y2="16.2375" gradientUnits="userSpaceOnUse">
<stop stop-color="#EEE4FF"/>
<stop offset="1" stop-color="#AF98D5"/>
</linearGradient>
</defs>
</svg>
