<svg width="19" height="19" viewBox="0 0 19 19" fill="none" xmlns="http://www.w3.org/2000/svg">
<path d="M1.00944 8.075C0.626111 8.075 0.338611 7.9125 0.146944 7.5875C-0.0447222 7.2625 -0.0488889 6.93333 0.134444 6.6L3.43444 0.65C3.61778 0.316667 3.90944 0.15 4.30944 0.15C4.70944 0.15 5.00111 0.316667 5.18444 0.65L8.48445 6.6C8.66778 6.93333 8.66361 7.2625 8.47194 7.5875C8.28028 7.9125 7.99278 8.075 7.60945 8.075H1.00944ZM4.30944 18.075C3.20944 18.075 2.26778 17.6833 1.48444 16.9C0.701111 16.1167 0.309444 15.175 0.309444 14.075C0.309444 12.9583 0.701111 12.0125 1.48444 11.2375C2.26778 10.4625 3.20944 10.075 4.30944 10.075C5.40944 10.075 6.35111 10.4667 7.13445 11.25C7.91778 12.0333 8.30945 12.975 8.30945 14.075C8.30945 15.175 7.91778 16.1167 7.13445 16.9C6.35111 17.6833 5.40944 18.075 4.30944 18.075ZM4.30944 16.075C4.85945 16.075 5.33028 15.8792 5.72194 15.4875C6.11361 15.0958 6.30944 14.625 6.30944 14.075C6.30944 13.525 6.11361 13.0542 5.72194 12.6625C5.33028 12.2708 4.85945 12.075 4.30944 12.075C3.75944 12.075 3.28861 12.2708 2.89694 12.6625C2.50528 13.0542 2.30944 13.525 2.30944 14.075C2.30944 14.625 2.50528 15.0958 2.89694 15.4875C3.28861 15.8792 3.75944 16.075 4.30944 16.075ZM2.70944 6.075H5.90944L4.30944 3.2L2.70944 6.075ZM11.3094 18.075C11.0261 18.075 10.7886 17.9792 10.5969 17.7875C10.4053 17.5958 10.3094 17.3583 10.3094 17.075V11.075C10.3094 10.7917 10.4053 10.5542 10.5969 10.3625C10.7886 10.1708 11.0261 10.075 11.3094 10.075H17.3094C17.5928 10.075 17.8303 10.1708 18.0219 10.3625C18.2136 10.5542 18.3094 10.7917 18.3094 11.075V17.075C18.3094 17.3583 18.2136 17.5958 18.0219 17.7875C17.8303 17.9792 17.5928 18.075 17.3094 18.075H11.3094ZM12.3094 16.075H16.3094V12.075H12.3094V16.075ZM12.9094 3.575L11.0094 1.675C10.8261 1.49167 10.7344 1.25833 10.7344 0.975C10.7344 0.691667 10.8261 0.458333 11.0094 0.275C11.1928 0.0916667 11.4261 0 11.7094 0C11.9928 0 12.2261 0.0916667 12.4094 0.275L14.3094 2.175L16.2094 0.275C16.3928 0.0916667 16.6261 0 16.9094 0C17.1928 0 17.4261 0.0916667 17.6094 0.275C17.7928 0.458333 17.8844 0.691667 17.8844 0.975C17.8844 1.25833 17.7928 1.49167 17.6094 1.675L15.7094 3.575L17.6094 5.475C17.7928 5.65833 17.8844 5.89167 17.8844 6.175C17.8844 6.45833 17.7928 6.69167 17.6094 6.875C17.4261 7.05833 17.1928 7.15 16.9094 7.15C16.6261 7.15 16.3928 7.05833 16.2094 6.875L14.3094 4.975L12.4094 6.875C12.2261 7.05833 11.9928 7.15 11.7094 7.15C11.4261 7.15 11.1928 7.05833 11.0094 6.875C10.8261 6.69167 10.7344 6.45833 10.7344 6.175C10.7344 5.89167 10.8261 5.65833 11.0094 5.475L12.9094 3.575Z" fill="white"/>
</svg>
