<svg width="65" height="65" viewBox="0 0 65 65" fill="none" xmlns="http://www.w3.org/2000/svg">
<path d="M55.5209 6.77087H9.47925L13.5417 52.8125L32.5001 58.2292L51.4584 52.8125L55.5209 6.77087Z" fill="#0277BD"/>
<path d="M32.5 10.8334V54.0313L47.6667 49.698L51.0521 10.8334H32.5Z" fill="#039BE5"/>
<path d="M44.8229 17.6041H32.5V23.0208H39.1354L38.7292 28.4375H32.5V33.8541H38.4583L38.0521 39.9479L32.5 41.8437V47.5312L43.1979 44.0104L44.1458 28.4375L44.8229 17.6041Z" fill="white"/>
<path d="M32.5001 17.6041V23.0208H20.448L20.0417 17.6041H32.5001ZM26.2709 28.4375L26.5417 33.8541H32.5001V28.4375H26.2709ZM26.8126 36.5625H21.3959L21.8022 44.0104L32.5001 47.5312V41.8437L26.948 39.9479L26.8126 36.5625Z" fill="#EEEEEE"/>
</svg>
