<svg width="65" height="65" viewBox="0 0 65 65" fill="none" xmlns="http://www.w3.org/2000/svg">
<path d="M55.5209 6.77087H9.47925L13.5417 52.8125L32.5001 58.2292L51.4584 52.8125L55.5209 6.77087Z" fill="#E65100"/>
<path d="M32.5 10.8334V54.0313L47.6667 49.698L51.0521 10.8334H32.5Z" fill="#FF6D00"/>
<path d="M32.5 33.8541V28.4375H44.1458L43.1979 44.0104L32.5 47.5312V41.8437L38.0521 39.9479L38.4583 33.8541H32.5ZM44.5521 23.0208L44.9583 17.6041H32.5V23.0208H44.5521Z" fill="white"/>
<path d="M32.4999 41.8437V47.5312L21.802 44.0104L21.2603 36.5625H26.677L26.9478 39.9479L32.4999 41.8437ZM25.8645 23.0208H32.4999V17.6041H20.177L21.1249 33.8541H32.4999V28.4375H26.2708L25.8645 23.0208Z" fill="#EEEEEE"/>
</svg>
