<svg width="65" height="65" viewBox="0 0 65 65" fill="none" xmlns="http://www.w3.org/2000/svg">
<path d="M8.125 56.875V8.125H56.875V56.875H8.125Z" fill="#FFD600"/>
<path d="M39.9994 44.6158C40.9364 46.1379 41.9548 47.5963 44.112 47.5963C45.9238 47.5963 46.8745 46.6958 46.8745 45.45C46.8745 43.959 45.8913 43.4296 43.898 42.5615L42.8052 42.0957C39.6513 40.7578 37.5537 39.0813 37.5537 35.5402C37.5537 32.2766 40.0522 29.7931 43.9562 29.7931C46.7363 29.7931 48.7337 30.7559 50.1746 33.2774L46.7702 35.4535C46.0213 34.1156 45.2115 33.5888 43.9562 33.5888C42.6752 33.5888 41.8641 34.3973 41.8641 35.4535C41.8641 36.7589 42.6766 37.2871 44.5521 38.0955L45.6449 38.5613C49.3621 40.1444 51.4583 41.7612 51.4583 45.3958C51.4583 49.3121 48.3654 51.4584 44.2135 51.4584C40.1524 51.4584 37.8462 49.4204 36.5625 46.8976L39.9994 44.6158ZM24.31 44.7269C24.9952 45.9537 26.0366 46.8976 27.5343 46.8976C28.967 46.8976 29.7917 46.3315 29.7917 44.131V29.7917H34.3051V44.8244C34.3051 49.3838 31.6604 51.4584 27.7983 51.4584C24.3086 51.4584 21.7899 49.094 20.7634 46.8976L24.31 44.7269Z" fill="#000001"/>
</svg>
