<svg width="48" height="48" viewBox="0 0 48 48" fill="none" xmlns="http://www.w3.org/2000/svg">
<path d="M34.1761 4.249C34.3641 4.341 39.8641 6.965 42.5501 8.247C43.4371 8.67 44.0001 9.564 44.0001 10.546V37.406C44.0001 38.387 43.4411 39.28 42.5571 39.705C40.0091 40.933 34.9461 43.371 34.6091 43.531C34.3611 43.649 33.7091 44 33.1811 44C32.5031 44 32.0481 43.684 31.6011 43.27L34.0001 35.711V5.715L31.7461 4.58C32.2281 4.109 32.8961 4 33.2911 4C33.6531 4 33.9481 4.138 34.1761 4.249Z" fill="url(#paint0_linear_332_5)"/>
<path d="M8.99992 33.896L33.9999 14.873V5.83002C33.9999 4.53102 32.3379 4.02202 31.6629 4.64602C31.0079 5.25002 4.65792 29.239 4.65792 29.239C3.75792 30.069 3.80892 31.506 4.76492 32.271C4.76492 32.271 6.08892 33.503 6.56792 33.845C7.30392 34.37 8.27092 34.43 8.99992 33.896Z" fill="url(#paint1_linear_332_5)"/>
<path d="M8.99992 14.1039L33.9999 33.1579V41.9289C33.9999 43.1269 32.5799 44.1219 31.6009 43.2699L4.65792 18.7609C3.75792 17.9309 3.80892 16.4939 4.76492 15.7289C4.76492 15.7289 6.08892 14.4969 6.56792 14.1549C7.30392 13.6299 8.27092 13.5699 8.99992 14.1039Z" fill="#0288D1"/>
<defs>
<linearGradient id="paint0_linear_332_5" x1="37.8001" y1="43.37" x2="37.8001" y2="7.42" gradientUnits="userSpaceOnUse">
<stop stop-color="#29B6F6"/>
<stop offset="1" stop-color="#13B2F6"/>
</linearGradient>
<linearGradient id="paint1_linear_332_5" x1="6.08492" y1="34.801" x2="34.7929" y2="7.17302" gradientUnits="userSpaceOnUse">
<stop offset="0.115" stop-color="#0076BB"/>
<stop offset="0.257" stop-color="#0069B0"/>
<stop offset="0.28" stop-color="#0069B0"/>
<stop offset="0.424" stop-color="#0069B0"/>
<stop offset="0.491" stop-color="#0072B7"/>
<stop offset="0.577" stop-color="#0076BB"/>
<stop offset="0.795" stop-color="#0076BB"/>
<stop offset="1" stop-color="#006EB9"/>
</linearGradient>
</defs>
</svg>
