<svg width="35" height="35" viewBox="0 0 32 32" fill="none" xmlns="http://www.w3.org/2000/svg">
<path fill-rule="evenodd" clip-rule="evenodd" d="M16 0C7.16146 0 0 7.16146 0 16C0 23.0677 4.58333 29.0677 10.9427 31.1823C11.7448 31.3281 12.0365 30.8385 12.0365 30.4115C12.0365 30.0312 12.0208 29.026 12.0156 27.6927C7.5625 28.6562 6.625 25.5469 6.625 25.5469C5.89583 23.6979 4.84896 23.2031 4.84896 23.2031C3.39583 22.2135 4.95833 22.2344 4.95833 22.2344C6.5625 22.349 7.40625 23.8802 7.40625 23.8802C8.83333 26.3281 11.151 25.6198 12.0625 25.2135C12.2083 24.1771 12.625 23.474 13.0781 23.0729C9.52604 22.6719 5.79167 21.2969 5.79167 15.1667C5.79167 13.4167 6.41667 11.9896 7.4375 10.8698C7.27604 10.4688 6.72396 8.83854 7.59375 6.63542C7.59375 6.63542 8.9375 6.20833 11.9948 8.27604C13.2708 7.92187 14.6406 7.74479 16 7.73958C17.3594 7.74479 18.7292 7.92187 20.0052 8.27604C23.0625 6.20833 24.401 6.63542 24.401 6.63542C25.276 8.83854 24.7292 10.4688 24.5625 10.8698C25.5885 11.9896 26.2031 13.4167 26.2031 15.1667C26.2031 21.3125 22.4635 22.6615 18.901 23.0625C19.474 23.5521 19.9844 24.5312 19.9844 26.0208C19.9844 28.1615 19.9688 29.8854 19.9688 30.4115C19.9688 30.8385 20.2552 31.3385 21.0677 31.1823C27.4219 29.0625 32 23.0677 32 16C32 7.16146 24.8385 0 16 0Z" fill="#666666"/>
</svg>
