<svg width="25" height="16" viewBox="0 0 25 16" fill="none" xmlns="http://www.w3.org/2000/svg">
<path d="M7.02 5.1C7.15333 5.1 7.24 5.12667 7.28 5.18C7.46667 5.40667 7.56 5.59333 7.56 5.74C7.56 5.87333 7.52 5.99333 7.44 6.1C7.36 6.19333 7.26 6.30667 7.14 6.44C7.03333 6.56 6.80667 6.73333 6.46 6.96C6.12667 7.17333 5.8 7.28 5.48 7.28C5.24 7.24 5.12 7.09333 5.12 6.84C5.12 6.44 5.36 6.05333 5.84 5.68C6.32 5.29333 6.71333 5.1 7.02 5.1ZM2.22 12.98C2.11333 13.1667 2.06 13.3333 2.06 13.48C2.06 13.6267 2.14 13.7 2.3 13.7C2.39333 13.7 2.55333 13.66 2.78 13.58C5.27333 12.2733 7.71333 10.7333 10.1 8.96C10.22 9.05333 10.28 9.16667 10.28 9.3C10.28 9.43333 10.2133 9.56 10.08 9.68C9.94667 9.8 9.75333 9.97333 9.5 10.2C9.26 10.4267 8.79333 10.8333 8.1 11.42C7.40667 12.0067 6.76 12.54 6.16 13.02C4.58667 14.2867 3.42667 15.0333 2.68 15.26C2.44 15.3267 2.18 15.36 1.9 15.36C0.873333 15.36 0.36 14.8133 0.36 13.72C0.36 13.2933 0.593333 12.6867 1.06 11.9C1.52667 11.1 2.00667 10.4 2.5 9.8C2.99333 9.18667 3.32 8.84667 3.48 8.78C3.72 8.63333 3.98 8.56 4.26 8.56C4.54 8.56 4.80667 8.61333 5.06 8.72C5.14 8.76 5.18 8.81333 5.18 8.88C5.18 8.94667 5.11333 9.04667 4.98 9.18C4.86 9.31333 4.66667 9.52 4.4 9.8C4.14667 10.08 3.76 10.5667 3.24 11.26C2.73333 11.94 2.39333 12.5133 2.22 12.98ZM13.4561 7.82L15.4761 7.6H15.5161C15.8628 7.6 16.1494 7.48667 16.3761 7.26C19.7494 3.79333 21.9761 1.74 23.0561 1.1C23.1628 1.02 23.2628 0.979999 23.3561 0.979999C23.4494 0.979999 23.5228 1.00667 23.5761 1.06C23.8694 1.27333 24.0161 1.41333 24.0161 1.48C24.0161 1.53333 23.9961 1.58 23.9561 1.62C20.4761 5.03333 18.7361 6.87333 18.7361 7.14C18.7361 7.20667 18.7894 7.24 18.8961 7.24C19.6961 7.25333 20.1361 7.3 20.2161 7.38C20.2961 7.46 20.4161 7.51333 20.5761 7.54C20.7894 7.54 21.1161 7.62 21.5561 7.78C21.9961 7.92667 22.2161 8.12667 22.2161 8.38C22.2161 8.44667 22.1828 8.49333 22.1161 8.52C22.0628 8.53333 21.8028 8.57333 21.3361 8.64C20.8694 8.70667 20.2694 8.78667 19.5361 8.88C18.8028 8.97333 18.2161 9.04667 17.7761 9.1C17.3494 9.15333 17.0494 9.2 16.8761 9.24C16.7028 9.26667 16.5694 9.36 16.4761 9.52C14.5294 12.0533 13.1828 13.9133 12.4361 15.1C12.4094 15.2467 12.3294 15.32 12.1961 15.32C12.0628 15.32 11.9228 15.1933 11.7761 14.94C11.6428 14.6867 11.5761 14.4067 11.5761 14.1C11.5761 13.3267 12.3694 11.9333 13.9561 9.92C14.0494 9.84 14.0961 9.77333 14.0961 9.72C14.0961 9.69333 14.0694 9.68 14.0161 9.68H13.9161L11.3161 10.12C11.1294 10.12 10.9761 10.2 10.8561 10.36C9.08276 12.7867 8.06943 14.2267 7.81609 14.68C7.77609 14.84 7.68276 14.92 7.53609 14.92C7.40276 14.92 7.23609 14.82 7.03609 14.62C6.83609 14.4067 6.73609 14.1667 6.73609 13.9C6.73609 13.6333 6.90943 13.1467 7.25609 12.44C7.61609 11.72 7.98943 11.1267 8.37609 10.66C8.44276 10.5667 8.47609 10.4933 8.47609 10.44C8.47609 10.3867 8.42943 10.36 8.33609 10.36L7.39609 10.32C7.16943 10.3067 6.84276 10.1067 6.41609 9.72C6.00276 9.32 5.79609 8.96667 5.79609 8.66C5.79609 8.54 5.86276 8.48 5.99609 8.48C6.95609 8.58667 7.60276 8.64 7.93609 8.64C8.28276 8.64 9.06943 8.53333 10.2961 8.32C10.4161 8.28 10.5761 8.14667 10.7761 7.92C14.8028 3.73333 17.0628 1.64 17.5561 1.64C17.6361 1.64 17.7361 1.70667 17.8561 1.84C17.9894 1.97333 18.0561 2.08 18.0561 2.16C18.0561 2.22667 18.0294 2.28667 17.9761 2.34C15.2428 5.32667 13.7694 6.94667 13.5561 7.2C13.3428 7.44 13.2361 7.60667 13.2361 7.7C13.2361 7.78 13.3094 7.82 13.4561 7.82Z" fill="#8000FF"/>
</svg>
