<svg width="113" height="34" viewBox="0 0 113 34" fill="none" xmlns="http://www.w3.org/2000/svg">
<path d="M12.72 4.68V5.48C11.8667 5.50667 11.2133 5.61333 10.76 5.8C10.3333 5.96 10.0533 6.28 9.92 6.76C9.78667 7.21333 9.72 7.93333 9.72 8.92V28.76C9.72 29.72 9.78667 30.44 9.92 30.92C10.08 31.4 10.3733 31.72 10.8 31.88C11.2267 32.04 11.8667 32.1467 12.72 32.2V33C12 32.9467 11.0933 32.92 10 32.92C8.90667 32.8933 7.8 32.88 6.68 32.88C5.37333 32.88 4.16 32.8933 3.04 32.92C1.94667 32.92 1.05333 32.9467 0.36 33V32.2C1.21333 32.1467 1.85333 32.04 2.28 31.88C2.70667 31.72 2.98667 31.4 3.12 30.92C3.28 30.44 3.36 29.72 3.36 28.76V8.92C3.36 7.93333 3.28 7.21333 3.12 6.76C2.98667 6.28 2.69333 5.96 2.24 5.8C1.81333 5.61333 1.18667 5.50667 0.36 5.48V4.68C1.05333 4.70667 1.94667 4.73333 3.04 4.76C4.16 4.78667 5.37333 4.8 6.68 4.8C7.8 4.8 8.90667 4.78667 10 4.76C11.0933 4.73333 12 4.70667 12.72 4.68ZM33.6941 12.32V13.12C33.1874 13.2533 32.7074 13.5733 32.2541 14.08C31.8007 14.56 31.3607 15.3867 30.9341 16.56L25.0941 33.08C24.6674 33.0533 24.2274 33.04 23.7741 33.04C23.3474 33.04 22.9207 33.0533 22.4941 33.08L15.3741 15.4C14.9474 14.36 14.5207 13.7333 14.0941 13.52C13.6941 13.28 13.3474 13.16 13.0541 13.16V12.32C13.9074 12.3733 14.7874 12.4267 15.6941 12.48C16.6274 12.5067 17.6407 12.52 18.7341 12.52C19.5607 12.52 20.4274 12.5067 21.3341 12.48C22.2674 12.4267 23.1341 12.3733 23.9341 12.32V13.16C23.3741 13.16 22.8674 13.1867 22.4141 13.24C21.9874 13.2933 21.6941 13.4667 21.5341 13.76C21.3741 14.0533 21.4007 14.5733 21.6141 15.32L26.2941 27.72L25.8941 28.28L29.0541 19.52C29.5607 18.08 29.7741 16.9067 29.6941 16C29.6141 15.0667 29.3207 14.3733 28.8141 13.92C28.3074 13.44 27.6274 13.1733 26.7741 13.12V12.32C27.1741 12.3467 27.6007 12.3733 28.0541 12.4C28.5341 12.4 28.9874 12.4133 29.4141 12.44C29.8674 12.44 30.2674 12.44 30.6141 12.44C31.1474 12.44 31.7074 12.4267 32.2941 12.4C32.8807 12.3733 33.3474 12.3467 33.6941 12.32ZM39.7378 33.28C38.5378 33.28 37.5378 33.0533 36.7378 32.6C35.9378 32.1467 35.3511 31.5467 34.9778 30.8C34.6045 30.0267 34.4178 29.1867 34.4178 28.28C34.4178 27.1333 34.6711 26.2 35.1778 25.48C35.7111 24.76 36.3911 24.1733 37.2178 23.72C38.0445 23.2667 38.9111 22.8933 39.8178 22.6C40.7511 22.3067 41.6311 22.0267 42.4578 21.76C43.3111 21.4667 43.9911 21.1333 44.4978 20.76C45.0311 20.36 45.2978 19.8533 45.2978 19.24V16.12C45.2978 15.4267 45.1778 14.8133 44.9378 14.28C44.7245 13.72 44.3778 13.2933 43.8978 13C43.4445 12.7067 42.8445 12.56 42.0978 12.56C41.5645 12.56 41.0311 12.64 40.4978 12.8C39.9645 12.9333 39.5245 13.1733 39.1778 13.52C39.9245 13.7867 40.4978 14.2 40.8978 14.76C41.3245 15.2933 41.5378 15.9067 41.5378 16.6C41.5378 17.5067 41.2178 18.2267 40.5778 18.76C39.9645 19.2933 39.2311 19.56 38.3778 19.56C37.4178 19.56 36.6845 19.2667 36.1778 18.68C35.6978 18.0667 35.4578 17.3333 35.4578 16.48C35.4578 15.7067 35.6445 15.0667 36.0178 14.56C36.4178 14.0533 36.9645 13.5733 37.6578 13.12C38.4045 12.6933 39.2978 12.36 40.3378 12.12C41.4045 11.88 42.5511 11.76 43.7778 11.76C45.0045 11.76 46.1111 11.8933 47.0978 12.16C48.0845 12.4 48.9111 12.8533 49.5778 13.52C50.1911 14.1333 50.5911 14.8933 50.7778 15.8C50.9645 16.68 51.0578 17.8 51.0578 19.16V30.04C51.0578 30.7067 51.1245 31.1733 51.2578 31.44C51.3911 31.68 51.6178 31.8 51.9378 31.8C52.1778 31.8 52.4045 31.7333 52.6178 31.6C52.8578 31.4667 53.1111 31.3067 53.3778 31.12L53.7778 31.8C53.2178 32.28 52.5645 32.6533 51.8178 32.92C51.0978 33.16 50.2845 33.28 49.3778 33.28C48.3911 33.28 47.6045 33.1467 47.0178 32.88C46.4311 32.5867 46.0045 32.2 45.7378 31.72C45.4978 31.24 45.3778 30.68 45.3778 30.04C44.7378 31.0533 43.9645 31.8533 43.0578 32.44C42.1511 33 41.0445 33.28 39.7378 33.28ZM42.5778 30.72C43.1111 30.72 43.5911 30.6 44.0178 30.36C44.4711 30.0933 44.8978 29.6667 45.2978 29.08V20.88C45.0578 21.28 44.7245 21.64 44.2978 21.96C43.8711 22.28 43.4178 22.6133 42.9378 22.96C42.4578 23.28 41.9911 23.64 41.5378 24.04C41.1111 24.44 40.7645 24.9333 40.4978 25.52C40.2311 26.1067 40.0978 26.8133 40.0978 27.64C40.0978 28.68 40.3245 29.4533 40.7778 29.96C41.2311 30.4667 41.8311 30.72 42.5778 30.72ZM44.0178 0.199998C44.7378 1.66666 45.7245 3.12 46.9778 4.56C48.2578 5.97333 49.6578 7.13333 51.1778 8.04L50.8578 8.6C49.3111 8.22667 47.8178 7.76 46.3778 7.2C44.9378 6.64 43.7645 6.09333 42.8578 5.56C42.1378 6.09333 41.1911 6.64 40.0178 7.2C38.8711 7.76 37.6845 8.22667 36.4578 8.6L36.1378 8.04C37.6578 7.13333 39.0445 5.97333 40.2978 4.56C41.5778 3.14666 42.5778 1.69333 43.2978 0.199998H44.0178ZM69.8009 11.76C70.9209 11.76 71.8276 11.9067 72.5209 12.2C73.2409 12.4667 73.8009 12.84 74.2009 13.32C74.6276 13.8267 74.9343 14.48 75.1209 15.28C75.3343 16.08 75.4409 17.16 75.4409 18.52V29.28C75.4409 30.4 75.6276 31.16 76.0009 31.56C76.4009 31.96 77.0676 32.16 78.0009 32.16V33C77.4943 32.9733 76.7343 32.9467 75.7209 32.92C74.7076 32.8667 73.7076 32.84 72.7209 32.84C71.7076 32.84 70.7076 32.8667 69.7209 32.92C68.7609 32.9467 68.0276 32.9733 67.5209 33V32.16C68.3209 32.16 68.8809 31.96 69.2009 31.56C69.5209 31.16 69.6809 30.4 69.6809 29.28V16.84C69.6809 16.1733 69.6143 15.6 69.4809 15.12C69.3476 14.6133 69.1076 14.2267 68.7609 13.96C68.4143 13.6667 67.8943 13.52 67.2009 13.52C66.4809 13.52 65.8143 13.72 65.2009 14.12C64.6143 14.52 64.1343 15.08 63.7609 15.8C63.4143 16.4933 63.2409 17.28 63.2409 18.16V29.28C63.2409 30.4 63.4009 31.16 63.7209 31.56C64.0676 31.96 64.6276 32.16 65.4009 32.16V33C64.9209 32.9733 64.2143 32.9467 63.2809 32.92C62.3743 32.8667 61.4276 32.84 60.4409 32.84C59.4276 32.84 58.3876 32.8667 57.3209 32.92C56.2543 32.9467 55.4543 32.9733 54.9209 33V32.16C55.8543 32.16 56.5076 31.96 56.8809 31.56C57.2809 31.16 57.4809 30.4 57.4809 29.28V16.68C57.4809 15.48 57.2943 14.6 56.9209 14.04C56.5743 13.4533 55.9076 13.16 54.9209 13.16V12.32C55.7743 12.4 56.6009 12.44 57.4009 12.44C58.5209 12.44 59.5609 12.4 60.5209 12.32C61.5076 12.2133 62.4143 12.0667 63.2409 11.88V15.48C63.9076 14.12 64.8143 13.16 65.9609 12.6C67.1076 12.04 68.3876 11.76 69.8009 11.76ZM84.6913 2C85.8113 2 86.6913 2.28 87.3313 2.84C87.9979 3.37333 88.3313 4.12 88.3313 5.08C88.3313 6.04 87.9979 6.8 87.3313 7.36C86.6913 7.89333 85.8113 8.16 84.6913 8.16C83.5713 8.16 82.6779 7.89333 82.0113 7.36C81.3713 6.8 81.0513 6.04 81.0513 5.08C81.0513 4.12 81.3713 3.37333 82.0113 2.84C82.6779 2.28 83.5713 2 84.6913 2ZM87.8113 11.88V29.28C87.8113 30.4 87.9979 31.16 88.3713 31.56C88.7713 31.96 89.4379 32.16 90.3713 32.16V33C89.8913 32.9733 89.1446 32.9467 88.1313 32.92C87.1179 32.8667 86.0913 32.84 85.0513 32.84C84.0113 32.84 82.9579 32.8667 81.8913 32.92C80.8246 32.9467 80.0246 32.9733 79.4913 33V32.16C80.4246 32.16 81.0779 31.96 81.4513 31.56C81.8513 31.16 82.0513 30.4 82.0513 29.28V16.68C82.0513 15.48 81.8646 14.6 81.4913 14.04C81.1446 13.4533 80.4779 13.16 79.4913 13.16V12.32C80.3446 12.4 81.1713 12.44 81.9713 12.44C83.0913 12.44 84.1313 12.4 85.0913 12.32C86.0779 12.2133 86.9846 12.0667 87.8113 11.88ZM102.428 11.76C104.375 11.76 106.082 12.12 107.548 12.84C109.015 13.56 110.162 14.72 110.988 16.32C111.815 17.92 112.228 20.04 112.228 22.68C112.228 25.32 111.815 27.44 110.988 29.04C110.162 30.6133 109.015 31.76 107.548 32.48C106.082 33.2 104.375 33.56 102.428 33.56C100.535 33.56 98.8418 33.2 97.3484 32.48C95.8818 31.76 94.7218 30.6133 93.8684 29.04C93.0418 27.44 92.6284 25.32 92.6284 22.68C92.6284 20.04 93.0418 17.92 93.8684 16.32C94.7218 14.72 95.8818 13.56 97.3484 12.84C98.8418 12.12 100.535 11.76 102.428 11.76ZM102.428 12.56C101.362 12.56 100.468 13.36 99.7484 14.96C99.0284 16.5333 98.6684 19.1067 98.6684 22.68C98.6684 26.2533 99.0284 28.8267 99.7484 30.4C100.468 31.9733 101.362 32.76 102.428 32.76C103.522 32.76 104.415 31.9733 105.108 30.4C105.828 28.8267 106.188 26.2533 106.188 22.68C106.188 19.1067 105.828 16.5333 105.108 14.96C104.415 13.36 103.522 12.56 102.428 12.56Z" fill="#F5F5F5"/>
</svg>
