<svg width="97" height="30" viewBox="0 0 97 30" fill="none" xmlns="http://www.w3.org/2000/svg">
<path d="M4.20288 28.7675L4.3979 26.6848C5.373 26.4895 6.01218 26.2184 6.31558 25.8712C6.6406 25.5024 6.80312 24.8624 6.80312 23.9512V11.3573C6.80312 10.6848 6.72724 10.2401 6.5756 10.0231C6.4239 9.78446 6.10969 9.66512 5.63302 9.66512C5.50301 9.66512 5.31881 9.67595 5.08048 9.69766C4.86377 9.69766 4.66875 9.69766 4.4954 9.69766L4.33289 9.43732L4.59291 7.54986C5.28631 7.54986 6.03387 7.56069 6.83562 7.58241C7.659 7.58241 8.40656 7.58241 9.0783 7.58241C9.48996 7.58241 10.0967 7.5607 10.8984 7.51732C11.7218 7.47395 12.6319 7.41969 13.6287 7.35461L13.4662 9.50241C12.6427 9.61086 12.0902 9.78446 11.8085 10.0231C11.5485 10.2401 11.3968 10.6522 11.3535 11.2597C11.2885 12.3011 11.2343 13.4075 11.191 14.579C11.1476 15.7288 11.1043 16.8895 11.061 18.0611C11.0176 19.2326 10.9851 20.3498 10.9635 21.4129C10.9418 22.4543 10.9309 23.3763 10.9309 24.179C10.9309 25.0685 11.0176 25.6651 11.191 25.9688C11.3643 26.2726 11.7001 26.4244 12.1986 26.4244C12.4369 26.4244 12.6861 26.4136 12.9461 26.3919C13.2061 26.3702 13.4337 26.3485 13.6287 26.3268L13.7587 26.5221L13.4662 28.5722C12.9894 28.5505 12.4477 28.5289 11.841 28.5072C11.2343 28.5072 10.6384 28.4963 10.0534 28.4746C9.48996 28.4746 9.03493 28.4746 8.68827 28.4746C8.18986 28.4746 7.51817 28.4963 6.67311 28.5397C5.84967 28.6048 5.02628 28.6807 4.20288 28.7675ZM19.149 28.9627C19.149 28.9627 19.084 28.7349 18.954 28.2794C18.824 27.8021 18.6506 27.1837 18.434 26.4244C18.239 25.6651 18.0114 24.8407 17.7514 23.9512C17.4914 23.04 17.2314 22.1288 16.9714 21.2177C16.7113 20.3065 16.473 19.4821 16.2563 18.7444C16.0396 18.0068 15.8663 17.4319 15.7363 17.0197C15.3895 15.9783 14.7178 15.4359 13.721 15.3926L13.656 15.2624L13.8836 13.44C13.8836 13.44 14.0569 13.44 14.4036 13.44C14.772 13.44 15.1945 13.4509 15.6713 13.4726C16.1696 13.4726 16.5921 13.4726 16.9389 13.4726C17.6539 13.4726 18.3473 13.4509 19.019 13.4075C19.6907 13.3641 20.2433 13.3316 20.6767 13.3099C21.1317 13.2665 21.3592 13.2448 21.3592 13.2448L21.4242 13.4075L21.1317 15.2624C20.4816 15.3058 20.0482 15.3817 19.8316 15.4902C19.6366 15.5987 19.5391 15.8048 19.5391 16.1085C19.5391 16.2387 19.5824 16.5424 19.6691 17.0197C19.7774 17.497 19.9074 18.0719 20.0591 18.7444C20.2324 19.417 20.395 20.1004 20.5466 20.7946C20.72 21.4888 20.8825 22.1397 21.0342 22.7472C21.2075 23.3546 21.3375 23.8536 21.4242 24.2441C21.5325 24.6129 21.5867 24.7973 21.5867 24.7973H21.9118C22.4968 23.2136 23.006 21.8034 23.4394 20.5668C23.8727 19.3302 24.2086 18.3322 24.447 17.5729C24.6853 16.7919 24.8045 16.2929 24.8045 16.076C24.8045 15.8156 24.7286 15.6421 24.577 15.5553C24.4253 15.4685 24.1436 15.4251 23.7319 15.4251H22.8218L22.6918 15.1973L22.9193 13.44C22.9193 13.44 23.1144 13.44 23.5044 13.44C23.8944 13.44 24.3711 13.4509 24.9345 13.4726C25.4979 13.4726 26.0179 13.4726 26.4946 13.4726C26.9497 13.4726 27.3938 13.4726 27.8272 13.4726C28.2823 13.4509 28.6614 13.44 28.9648 13.44C29.2899 13.44 29.4524 13.44 29.4524 13.44L29.1923 15.3926C28.7156 15.4577 28.3689 15.6095 28.1523 15.8482C27.9356 16.0868 27.6864 16.5749 27.4047 17.3126L23.3094 28.4746L19.149 28.9627ZM41.1574 28.8651C40.2039 28.8651 39.4455 28.6481 38.8822 28.2143C38.3405 27.7804 38.0154 27.1621 37.9071 26.3594L37.6471 26.2617C37.2354 26.6956 36.802 27.1078 36.347 27.4983C35.8919 27.8671 35.4694 28.1709 35.0794 28.4095C34.6893 28.6265 34.3535 28.7349 34.0718 28.7349C33.2267 28.7349 32.4683 28.5289 31.7966 28.1166C31.1249 27.7044 30.594 27.1404 30.204 26.4244C29.814 25.7085 29.6189 24.9058 29.6189 24.0163C29.6189 23.3437 29.7923 22.7689 30.139 22.2916C30.5073 21.7926 30.9624 21.4672 31.5041 21.3153L37.7771 19.8509L37.8096 19.0699C37.8096 18.137 37.5604 17.4102 37.062 16.8895C36.5853 16.3688 35.9028 16.1085 35.0144 16.1085C34.4076 16.1085 33.7576 16.2604 33.0642 16.5641C32.3708 16.8462 31.7532 17.2041 31.2116 17.638L30.919 17.5078L30.3665 15.5553C30.9949 15.1865 31.6991 14.8176 32.4792 14.4488C33.2592 14.0583 33.9959 13.7329 34.6894 13.4726C35.4044 13.2122 35.9461 13.0821 36.3145 13.0821C37.5712 13.0821 38.6005 13.2773 39.4022 13.6678C40.2039 14.0583 40.789 14.5898 41.1574 15.2624C41.5257 15.9133 41.7099 16.6617 41.7099 17.5078C41.7099 17.7899 41.6774 18.2238 41.6124 18.8095C41.5474 19.3953 41.4715 20.0353 41.3849 20.7295C41.2982 21.4237 41.2224 22.0855 41.1574 22.7146C41.0924 23.3437 41.0599 23.8428 41.0599 24.2116C41.0599 24.6238 41.1574 24.9492 41.3524 25.1878C41.569 25.4265 41.8616 25.5458 42.23 25.5458C42.5116 25.5458 42.7933 25.4807 43.075 25.3505C43.3784 25.2204 43.6167 25.101 43.7901 24.9926L44.2776 25.676C44.0609 26.0448 43.7792 26.4678 43.4326 26.9451C43.0858 27.4007 42.7175 27.8129 42.3275 28.1817C41.9374 28.5289 41.5474 28.7567 41.1574 28.8651ZM35.2744 25.6434C35.5994 25.6434 35.9786 25.5566 36.412 25.3831C36.867 25.1878 37.2679 24.96 37.6146 24.6997L37.7121 21.6082L34.2343 22.5844C33.7143 22.7363 33.4543 23.0943 33.4543 23.6583C33.4543 24.2224 33.6168 24.6997 33.9418 25.0902C34.2885 25.459 34.7327 25.6434 35.2744 25.6434ZM32.3492 11.1946L31.8291 11.097L30.919 9.79529C31.4824 9.23124 32.0566 8.65631 32.6417 8.07054C33.2267 7.48478 33.7576 6.94239 34.2343 6.44342C34.7327 5.94446 35.1227 5.54307 35.4044 5.23936C35.6861 4.91393 35.8269 4.75122 35.8269 4.75122H36.477C36.477 4.75122 36.6178 4.91393 36.8995 5.23936C37.1812 5.54307 37.5604 5.94446 38.0371 6.44342C38.5355 6.94239 39.0663 7.48478 39.6297 8.07054C40.2148 8.65631 40.789 9.23124 41.3524 9.79529L40.4423 11.097L39.9548 11.1946C39.2613 10.6306 38.5572 10.1099 37.8421 9.63258C37.1487 9.15527 36.5853 8.76476 36.152 8.46105C35.6969 8.76476 35.1227 9.15527 34.4293 9.63258C33.7359 10.1099 33.0425 10.6306 32.3492 11.1946ZM54.6628 26.7173C55.2042 26.6089 55.5836 26.4136 55.8004 26.1316C56.0386 25.8278 56.1686 25.4156 56.1904 24.8949L56.2879 19.2651C56.2879 18.3106 56.1143 17.6055 55.7679 17.1499C55.421 16.6726 54.8903 16.4339 54.1753 16.4339C53.8284 16.4339 53.4602 16.5098 53.0702 16.6617C52.7015 16.7919 52.3658 16.9546 52.0626 17.1499C51.7589 17.3451 51.5101 17.5187 51.315 17.6705C51.2932 18.2563 51.2607 18.918 51.2175 19.6556C51.1739 20.3933 51.1307 21.1309 51.0875 21.8685C51.0657 22.5844 51.0439 23.2245 51.0225 23.7885C51.0007 24.3526 50.99 24.7539 50.99 24.9926C50.99 25.5566 51.0657 25.9471 51.2175 26.1641C51.3689 26.3594 51.6182 26.457 51.9651 26.457C52.1164 26.457 52.3008 26.457 52.5176 26.457C52.734 26.4353 52.8427 26.4244 52.8427 26.4244L52.9077 26.5546L52.5827 28.5722C52.5827 28.5722 52.3876 28.5614 51.9976 28.5397C51.6076 28.518 51.1414 28.4963 50.5999 28.4746C50.0798 28.4746 49.6031 28.4746 49.1698 28.4746C48.6064 28.4746 48.0213 28.4854 47.4146 28.5072C46.8296 28.5505 46.3312 28.5831 45.9195 28.6048C45.5295 28.6482 45.3345 28.6699 45.3345 28.6699L45.5945 26.6522C46.2229 26.5654 46.6562 26.3919 46.8946 26.1316C47.1546 25.8712 47.2846 25.4373 47.2846 24.8299V17.9309C47.2846 17.1932 47.1654 16.6834 46.9271 16.4014C46.7104 16.1193 46.2987 15.9783 45.692 15.9783H45.2695L45.1395 15.8156L45.302 14.1234C46.2987 13.9715 47.2521 13.8197 48.1622 13.6678C49.0723 13.4943 49.8198 13.3532 50.4049 13.2448C50.99 13.1146 51.2825 13.0495 51.2825 13.0495L51.5426 13.3749C51.5426 13.3749 51.4882 13.6136 51.3801 14.0909C51.2932 14.5465 51.2282 15.0563 51.185 15.6204L51.315 15.7505C51.5751 15.5336 51.8889 15.2732 52.2576 14.9695C52.6477 14.6658 53.0484 14.3729 53.4602 14.0909C53.8934 13.8088 54.2941 13.5702 54.6628 13.3749C55.031 13.1797 55.3235 13.0821 55.5404 13.0821C57.0787 13.0821 58.2706 13.4509 59.1157 14.1885C59.9821 14.9262 60.4158 15.9566 60.4158 17.28C60.4158 17.6055 60.3833 18.1044 60.3183 18.777C60.2533 19.4495 60.1771 20.1871 60.0908 20.9899C60.0257 21.7926 59.9607 22.5519 59.8957 23.2678C59.8521 23.9838 59.8307 24.5478 59.8307 24.96C59.8307 25.5024 59.9064 25.9038 60.0583 26.1641C60.2096 26.4027 60.4696 26.5221 60.8383 26.5221C61.0333 26.5221 61.2497 26.5112 61.4884 26.4895C61.7266 26.4678 61.8459 26.457 61.8459 26.457L61.9109 26.5872L61.6184 28.5722C61.6184 28.5722 61.4884 28.5614 61.2284 28.5397C60.9897 28.5397 60.6865 28.5289 60.3183 28.5072C59.9496 28.5072 59.5707 28.4963 59.1807 28.4746C58.7906 28.4746 58.4331 28.4746 58.1081 28.4746C57.7831 28.4746 57.4144 28.4854 57.003 28.5072C56.613 28.5505 56.2229 28.5831 55.8329 28.6048C55.4429 28.6265 55.1179 28.6482 54.8578 28.6699C54.6191 28.7132 54.5003 28.7349 54.5003 28.7349L54.6628 26.7173Z" fill="url(#paint0_linear_8_129)"/>
<path d="M86.6154 28.8651C85.2285 28.8651 84.0259 28.5614 83.0076 27.9539C81.9894 27.3464 81.1875 26.4787 80.6025 25.3505C80.0392 24.2224 79.7574 22.9098 79.7574 21.4129C79.7574 19.764 80.0824 18.3214 80.7325 17.0847C81.4044 15.8264 82.3251 14.8501 83.4952 14.1559C84.6871 13.44 86.0522 13.082 87.5905 13.082C88.9988 13.082 90.2126 13.3857 91.2308 13.9932C92.2491 14.6007 93.0291 15.4576 93.571 16.5641C94.1342 17.6705 94.4161 18.983 94.4161 20.5017C94.4161 22.1505 94.091 23.604 93.441 24.8624C92.7909 26.1207 91.8702 27.1078 90.6783 27.8237C89.5082 28.5179 88.1537 28.8651 86.6154 28.8651ZM87.2655 26.4244C88.1974 26.4244 88.9013 26.0556 89.3782 25.318C89.8764 24.5587 90.1257 23.4522 90.1257 21.9986C90.1257 20.6319 89.9957 19.4929 89.7357 18.5817C89.4757 17.6488 89.0963 16.9546 88.5981 16.499C88.1212 16.0434 87.5362 15.8156 86.843 15.8156C85.911 15.8156 85.196 16.1844 84.6978 16.922C84.2209 17.6597 83.9827 18.7661 83.9827 20.2414C83.9827 21.6081 84.1127 22.7579 84.3728 23.6908C84.6328 24.602 85.001 25.2854 85.4778 25.741C85.976 26.1966 86.5723 26.4244 87.2655 26.4244Z" fill="url(#paint1_linear_8_129)"/>
<path d="M67.9477 5.01909C68.6303 4.27311 69.746 3.75554 71.07 3.5705C71.3133 3.53869 72.2772 3.57917 72.5651 3.637C73.4214 3.8047 74.2558 4.16902 74.85 4.63164C75.4 5.05668 76.0069 5.91254 76.2501 6.60356C76.5503 7.44499 76.5188 8.32973 76.1551 9.24921C75.9307 9.8217 75.6651 10.1831 75.0775 10.7151C74.8312 10.9378 74.6255 11.1373 74.6255 11.1547C74.6255 11.172 74.7205 11.2443 74.8403 11.3108C75.0836 11.4554 75.2608 11.626 75.3558 11.8023C75.4127 11.9093 75.4472 11.9353 75.6148 11.9931C76.1237 12.1724 76.4238 12.3633 76.569 12.6062C76.6579 12.7536 76.664 12.7796 76.664 13.0803C76.664 13.4244 76.6295 13.5227 76.4365 13.7309C76.1993 13.9911 75.5767 14.2571 74.7865 14.4364C74.5341 14.4942 74.3253 14.5434 74.3223 14.5491C74.3066 14.5636 74.4361 17.4579 74.4676 17.8077C74.5468 18.6521 74.7616 19.3778 75.1628 20.1353C75.3842 20.5546 75.5391 20.7512 76.0002 21.1936C76.4299 21.6071 76.6168 21.85 76.7021 22.116C76.7717 22.3357 76.7651 22.6654 76.6828 22.8793C76.6452 22.9747 76.6168 23.0673 76.6168 23.0875C76.6168 23.1077 76.7524 23.2118 76.92 23.3159C78.0611 24.0445 78.5949 24.4898 78.99 25.0479C79.091 25.1895 79.2175 25.4122 79.2683 25.5423C79.3755 25.8141 79.445 26.2015 79.4166 26.3634C79.4008 26.4646 79.4135 26.4878 79.5872 26.6873C79.8183 26.9504 80.0646 27.3783 80.1626 27.6848C80.2667 28.0144 80.2667 28.6477 80.1626 28.9831H63.052C62.9479 28.6477 62.9479 28.0144 63.052 27.6848C63.15 27.3783 63.3963 26.9504 63.6274 26.6873C63.8011 26.4878 63.8138 26.4646 63.7981 26.3634C63.7696 26.2015 63.8392 25.8141 63.9464 25.5423C64.1109 25.123 64.5091 24.6315 65.021 24.2093C65.2673 24.0041 65.7919 23.6369 66.2947 23.3159C66.4623 23.2118 66.5979 23.1077 66.5979 23.0875C66.5979 23.0673 66.5694 22.9747 66.5318 22.8793C66.4496 22.6654 66.443 22.3357 66.5125 22.116C66.5979 21.8529 66.7847 21.6071 67.1986 21.2081C67.6506 20.7772 67.7644 20.6385 67.9665 20.2944C68.387 19.5773 68.6648 18.6925 68.7471 17.8077C68.7786 17.4637 68.9081 14.5665 68.8923 14.5491C68.8893 14.5434 68.6806 14.4942 68.4282 14.4364C67.6379 14.2571 67.0153 13.9911 66.7781 13.7309C66.5852 13.5227 66.5506 13.4244 66.5506 13.0803C66.5506 12.7825 66.5567 12.7536 66.642 12.609C66.7908 12.3662 67.094 12.1695 67.5998 11.9931C67.7674 11.9353 67.802 11.9093 67.8589 11.8023C67.9538 11.626 68.1311 11.4554 68.3774 11.3108C68.4942 11.2443 68.5892 11.172 68.5892 11.1547C68.5892 11.1373 68.3931 10.9436 68.1499 10.7267C67.6918 10.3132 67.4607 10.0444 67.2616 9.68293C66.8223 8.88199 66.6517 7.82665 66.835 7.03729C66.993 6.35492 67.3977 5.62627 67.9477 5.01909Z" fill="url(#paint2_linear_8_129)"/>
<defs>
<linearGradient id="paint0_linear_8_129" x1="32.156" y1="10.4625" x2="32.156" y2="23.0175" gradientUnits="userSpaceOnUse">
<stop stop-color="#EEE4FF"/>
<stop offset="1" stop-color="#AF98D5"/>
</linearGradient>
<linearGradient id="paint1_linear_8_129" x1="86.9151" y1="10.4625" x2="86.9151" y2="23.0175" gradientUnits="userSpaceOnUse">
<stop stop-color="#EEE4FF"/>
<stop offset="1" stop-color="#AF98D5"/>
</linearGradient>
<linearGradient id="paint2_linear_8_129" x1="79.6375" y1="28.9997" x2="69.1182" y2="3.35238" gradientUnits="userSpaceOnUse">
<stop stop-color="#440099"/>
<stop offset="1" stop-color="#6600EE"/>
</linearGradient>
</defs>
</svg>
