<svg width="48" height="40" viewBox="0 0 48 40" fill="none" xmlns="http://www.w3.org/2000/svg">
<g filter="url(#filter0_d_31_3)">
<path d="M7 32C6.2 32 5.5 31.7 4.9 31.1C4.3 30.5 4 29.8 4 29V3C4 2.2 4.3 1.5 4.9 0.9C5.5 0.3 6.2 0 7 0H41C41.8 0 42.5 0.3 43.1 0.9C43.7 1.5 44 2.2 44 3V29C44 29.8 43.7 30.5 43.1 31.1C42.5 31.7 41.8 32 41 32H7ZM41 5.75L24.8 16.35C24.6667 16.4167 24.5417 16.475 24.425 16.525C24.3083 16.575 24.1667 16.6 24 16.6C23.8333 16.6 23.6917 16.575 23.575 16.525C23.4583 16.475 23.3333 16.4167 23.2 16.35L7 5.75V29H41V5.75ZM24 13.9L40.8 3H7.25L24 13.9ZM7 6.1V4.13415V4.17075V3V4.15V4.1044V6.1Z" fill="#8000FF"/>
</g>
<defs>
<filter id="filter0_d_31_3" x="0" y="0" width="48" height="40" filterUnits="userSpaceOnUse" color-interpolation-filters="sRGB">
<feFlood flood-opacity="0" result="BackgroundImageFix"/>
<feColorMatrix in="SourceAlpha" type="matrix" values="0 0 0 0 0 0 0 0 0 0 0 0 0 0 0 0 0 0 127 0" result="hardAlpha"/>
<feOffset dy="4"/>
<feGaussianBlur stdDeviation="2"/>
<feComposite in2="hardAlpha" operator="out"/>
<feColorMatrix type="matrix" values="0 0 0 0 0 0 0 0 0 0 0 0 0 0 0 0 0 0 0.25 0"/>
<feBlend mode="normal" in2="BackgroundImageFix" result="effect1_dropShadow_31_3"/>
<feBlend mode="normal" in="SourceGraphic" in2="effect1_dropShadow_31_3" result="shape"/>
</filter>
</defs>
</svg>
