<svg width="44" height="44" viewBox="0 0 44 44" fill="none" xmlns="http://www.w3.org/2000/svg">
<g filter="url(#filter0_d_31_5)">
<path d="M37.75 36C33.6833 36 29.6417 35 25.625 33C21.6083 31 18 28.4 14.8 25.2C11.6 22 9 18.3917 7 14.375C5 10.3583 4 6.31667 4 2.25C4 1.60713 4.21428 1.07142 4.64285 0.64285C5.07142 0.214283 5.60713 0 6.25 0H13.25C13.7037 0 14.1088 0.158333 14.4653 0.475C14.8218 0.791667 15.05 1.21667 15.15 1.75L16.5 8.05C16.5667 8.51667 16.5583 8.94167 16.475 9.325C16.3917 9.70833 16.2167 10.0333 15.95 10.3L10.95 15.35C12.8167 18.45 14.9083 21.15 17.225 23.45C19.5417 25.75 22.1667 27.7 25.1 29.3L29.85 24.4C30.1833 24.0333 30.5667 23.775 31 23.625C31.4333 23.475 31.8667 23.45 32.3 23.55L38.25 24.85C38.7604 24.9625 39.1797 25.2156 39.5078 25.6094C39.8359 26.0031 40 26.4667 40 27V33.75C40 34.3929 39.7857 34.9286 39.3572 35.3572C38.9286 35.7857 38.3929 36 37.75 36ZM9.45 12.6L13.5 8.5L12.35 3H7C7 4.3 7.2 5.725 7.6 7.275C8 8.825 8.61667 10.6 9.45 12.6ZM27.9 30.75C29.2667 31.3833 30.75 31.9 32.35 32.3C33.95 32.7 35.5 32.9333 37 33V27.65L31.85 26.6L27.9 30.75Z" fill="#8000FF"/>
</g>
<defs>
<filter id="filter0_d_31_5" x="0" y="0" width="44" height="44" filterUnits="userSpaceOnUse" color-interpolation-filters="sRGB">
<feFlood flood-opacity="0" result="BackgroundImageFix"/>
<feColorMatrix in="SourceAlpha" type="matrix" values="0 0 0 0 0 0 0 0 0 0 0 0 0 0 0 0 0 0 127 0" result="hardAlpha"/>
<feOffset dy="4"/>
<feGaussianBlur stdDeviation="2"/>
<feComposite in2="hardAlpha" operator="out"/>
<feColorMatrix type="matrix" values="0 0 0 0 0 0 0 0 0 0 0 0 0 0 0 0 0 0 0.25 0"/>
<feBlend mode="normal" in2="BackgroundImageFix" result="effect1_dropShadow_31_5"/>
<feBlend mode="normal" in="SourceGraphic" in2="effect1_dropShadow_31_5" result="shape"/>
</filter>
</defs>
</svg>
