<svg width="44" height="44" viewBox="0 0 44 44" fill="none" xmlns="http://www.w3.org/2000/svg">
<g filter="url(#filter0_d_212_4)">
<path d="M22 0C17.11 0 16.4995 0.0225 14.5795 0.108C12.6625 0.198 11.3575 0.4995 10.21 0.945C9.0265 1.404 8.0215 2.0205 7.021 3.021C6.0205 4.0215 5.4025 5.025 4.945 6.21C4.4995 7.3575 4.1965 8.6625 4.108 10.5795C4.018 12.4995 4 13.11 4 18C4 22.89 4.0225 23.5005 4.108 25.4205C4.198 27.336 4.4995 28.6425 4.945 29.79C5.404 30.972 6.0205 31.9785 7.021 32.979C8.0215 33.978 9.025 34.5975 10.21 35.055C11.359 35.499 12.664 35.8035 14.5795 35.892C16.4995 35.982 17.11 36 22 36C26.89 36 27.5005 35.9775 29.4205 35.892C31.336 35.802 32.6425 35.499 33.79 35.055C34.972 34.596 35.9785 33.978 36.979 32.979C37.978 31.9785 38.5975 30.9765 39.055 29.79C39.499 28.6425 39.8035 27.336 39.892 25.4205C39.982 23.5005 40 22.89 40 18C40 13.11 39.9775 12.4995 39.892 10.5795C39.802 8.664 39.499 7.356 39.055 6.21C38.596 5.0265 37.978 4.0215 36.979 3.021C35.9785 2.0205 34.9765 1.4025 33.79 0.945C32.6425 0.4995 31.336 0.1965 29.4205 0.108C27.5005 0.018 26.89 0 22 0ZM22 3.24C26.8045 3.24 27.3775 3.264 29.275 3.3465C31.03 3.429 31.9825 3.72 32.6155 3.969C33.4585 4.2945 34.0555 4.6845 34.6885 5.313C35.317 5.943 35.707 6.5415 36.0325 7.3845C36.2785 8.0175 36.5725 8.97 36.652 10.725C36.7375 12.624 36.757 13.194 36.757 18C36.757 22.806 36.7345 23.3775 36.646 25.275C36.5545 27.03 36.262 27.9825 36.0145 28.6155C35.6785 29.4585 35.296 30.0555 34.666 30.6885C34.0375 31.317 33.43 31.707 32.596 32.0325C31.966 32.2785 30.9985 32.5725 29.2435 32.652C27.3325 32.7375 26.77 32.757 21.955 32.757C17.1385 32.757 16.576 32.7345 14.6665 32.646C12.91 32.5545 11.9425 32.262 11.3125 32.0145C10.459 31.6785 9.8725 31.296 9.244 30.666C8.6125 30.0375 8.209 29.43 7.894 28.596C7.6465 27.966 7.3555 26.9985 7.264 25.2435C7.1965 23.3535 7.1725 22.77 7.1725 17.9775C7.1725 13.1835 7.1965 12.5985 7.264 10.686C7.3555 8.931 7.6465 7.965 7.894 7.335C8.209 6.48 8.6125 5.895 9.244 5.2635C9.8725 4.635 10.459 4.23 11.3125 3.9165C11.9425 3.6675 12.889 3.375 14.644 3.285C16.5565 3.2175 17.119 3.195 21.9325 3.195L22 3.24ZM22 8.757C16.8925 8.757 12.757 12.897 12.757 18C12.757 23.1075 16.897 27.243 22 27.243C27.1075 27.243 31.243 23.103 31.243 18C31.243 12.8925 27.103 8.757 22 8.757ZM22 24C18.685 24 16 21.315 16 18C16 14.685 18.685 12 22 12C25.315 12 28 14.685 28 18C28 21.315 25.315 24 22 24ZM33.769 8.3925C33.769 9.585 32.8 10.5525 31.609 10.5525C30.4165 10.5525 29.449 9.5835 29.449 8.3925C29.449 7.2015 30.418 6.234 31.609 6.234C32.7985 6.2325 33.769 7.2015 33.769 8.3925Z" fill="#8000FF"/>
</g>
<defs>
<filter id="filter0_d_212_4" x="0" y="0" width="44" height="44" filterUnits="userSpaceOnUse" color-interpolation-filters="sRGB">
<feFlood flood-opacity="0" result="BackgroundImageFix"/>
<feColorMatrix in="SourceAlpha" type="matrix" values="0 0 0 0 0 0 0 0 0 0 0 0 0 0 0 0 0 0 127 0" result="hardAlpha"/>
<feOffset dy="4"/>
<feGaussianBlur stdDeviation="2"/>
<feComposite in2="hardAlpha" operator="out"/>
<feColorMatrix type="matrix" values="0 0 0 0 0 0 0 0 0 0 0 0 0 0 0 0 0 0 0.25 0"/>
<feBlend mode="normal" in2="BackgroundImageFix" result="effect1_dropShadow_212_4"/>
<feBlend mode="normal" in="SourceGraphic" in2="effect1_dropShadow_212_4" result="shape"/>
</filter>
</defs>
</svg>
